<svg width="16" height="22" viewBox="0 0 16 22" fill="none" xmlns="http://www.w3.org/2000/svg">
<path d="M14.8758 12.2507C14.3919 12.2507 14.0007 12.6427 14.0007 13.1257V17.501H10.5006V3.50017C10.5006 3.11428 10.2468 2.77301 9.87664 2.66189L6.83759 1.75011H14.0007V6.12536C14.0007 6.60838 14.3919 7.00039 14.8758 7.00039C15.3597 7.00039 15.7508 6.60838 15.7508 6.12536V0.875074C15.7508 0.392007 15.3597 0 14.8758 0H0.875033C0.843532 0 0.815516 0.0131257 0.784917 0.0166122C0.743776 0.0210011 0.706163 0.0279742 0.666786 0.0376133C0.574906 0.0612396 0.491763 0.0971302 0.413911 0.146106C0.394674 0.15837 0.371047 0.159231 0.352671 0.173218C0.345616 0.17851 0.342991 0.188149 0.335977 0.193399C0.240611 0.268626 0.160995 0.360506 0.103242 0.4699C0.0909775 0.493527 0.0883524 0.518917 0.0787542 0.543404C0.050739 0.609894 0.0201398 0.674661 0.00963919 0.748165C0.00525028 0.774417 0.0131257 0.798904 0.0122643 0.824294C0.011403 0.841809 0 0.85756 0 0.875033V18.376C0 18.7934 0.294877 19.1522 0.703538 19.2335L9.45399 20.9837C9.51088 20.9959 9.56864 21.0012 9.62549 21.0012C9.82586 21.0012 10.0227 20.9321 10.1803 20.8025C10.3824 20.6363 10.5005 20.3886 10.5005 20.1261V19.2511H14.8758C15.3597 19.2511 15.7508 18.8591 15.7508 18.376V13.1257C15.7508 12.6427 15.3597 12.2507 14.8758 12.2507Z" fill="#9C4A4A"/>
</svg>
