<svg width="22" height="22" viewBox="0 0 22 22" fill="none" xmlns="http://www.w3.org/2000/svg">
<path d="M18.7787 3.22166C14.4829 -1.07365 7.51792 -1.07413 3.22166 3.22166C-1.07413 7.51745 -1.07365 14.4824 3.22166 18.7787C7.51745 23.0735 14.4824 23.074 18.7787 18.7787C23.074 14.4824 23.0735 7.51792 18.7787 3.22166ZM12.4345 15.7828C12.4345 16.5753 11.7922 17.2176 10.9997 17.2176C10.2072 17.2176 9.5649 16.5753 9.5649 15.7828V10.0436C9.5649 9.25116 10.2072 8.60885 10.9997 8.60885C11.7922 8.60885 12.4345 9.25116 12.4345 10.0436V15.7828ZM10.9744 7.5911C10.1479 7.5911 9.59695 7.0057 9.61416 6.28304C9.59695 5.52547 10.1479 4.95777 10.9911 4.95777C11.8348 4.95777 12.3685 5.52595 12.3862 6.28304C12.3857 7.0057 11.8352 7.5911 10.9744 7.5911Z" fill="#727272"/>
</svg>
