<svg width="20" height="20" viewBox="0 0 20 20" fill="none" xmlns="http://www.w3.org/2000/svg">
<path d="M17.2254 11.0553C17.2254 10.7537 17.3259 10.4522 17.3259 10.0502C17.3259 9.64822 17.3259 9.34672 17.2254 9.04521L19.3359 7.33667C19.5369 7.13566 19.5369 6.93466 19.4364 6.73366L17.4264 3.21607C17.3259 3.11557 17.1249 3.01507 16.8234 3.11557L14.3108 4.1206C13.8083 3.71859 13.2053 3.41708 12.6023 3.11557L12.2002 0.502512C12.3007 0.201005 11.9992 0 11.7982 0H7.77815C7.5771 0 7.27563 0.201005 7.27563 0.402009L6.87362 3.11557C6.27061 3.31658 5.7681 3.71859 5.16509 4.1206L2.75303 3.11557C2.45152 3.01507 2.25052 3.11557 2.04947 3.31658L0.0394275 6.83416C-0.0610748 6.93466 0.0394276 7.23617 0.240432 7.43717L2.35098 9.04521C2.35098 9.34672 2.25048 9.64822 2.25048 10.0502C2.25048 10.4522 2.25048 10.7537 2.35098 11.0553L0.240432 12.7638C0.0394276 12.9648 0.0394275 13.1658 0.13993 13.3668L2.14998 16.8844C2.25048 16.9849 2.45144 17.0854 2.75299 16.9849L5.26555 15.9799C5.76806 16.3819 6.37107 16.6834 6.97409 16.9849L7.3761 19.598C7.3761 19.799 7.5771 20 7.87861 20H11.8987C12.0997 20 12.4012 19.799 12.4012 19.598L12.8032 16.9849C13.4062 16.6834 14.0092 16.3819 14.5118 15.9799L17.0243 16.9849C17.2254 17.0854 17.5268 16.9849 17.6274 16.7839L19.6374 13.2663C19.7379 13.0653 19.7379 12.7638 19.5369 12.6633L17.2254 11.0553ZM9.78819 13.5678C7.87865 13.5678 6.27061 11.9598 6.27061 10.0502C6.27061 8.14069 7.87865 6.53265 9.78819 6.53265C11.6977 6.53265 13.3058 8.14069 13.3058 10.0502C13.3058 11.9598 11.6977 13.5678 9.78819 13.5678Z" fill="#727272"/>
</svg>
