<svg width="136" height="136" viewBox="0 0 136 136" fill="none" xmlns="http://www.w3.org/2000/svg">
<circle cx="68" cy="68" r="67.8" fill="#69D2FF" stroke="black" stroke-width="0.4"/>
<path d="M80.5591 62.8107C84.9751 63.7707 88.3671 65.6907 90.7351 68.5707C93.1671 71.3867 94.3831 75.0347 94.3831 79.5147C94.3831 85.2747 92.2391 89.7227 87.9511 92.8587C83.7271 95.9307 77.4551 97.4667 69.1351 97.4667H38.2231V30.2667H67.2151C74.7031 30.2667 80.4951 31.7707 84.5911 34.7787C88.7511 37.7867 90.8311 42.0427 90.8311 47.5467C90.8311 51.2587 89.9031 54.4267 88.0471 57.0507C86.2551 59.6107 83.7591 61.5307 80.5591 62.8107ZM45.3271 36.1227V60.5067H66.7351C72.1751 60.5067 76.3671 59.4827 79.3111 57.4347C82.2551 55.3227 83.7271 52.2827 83.7271 48.3147C83.7271 44.3467 82.2551 41.3387 79.3111 39.2907C76.3671 37.1787 72.1751 36.1227 66.7351 36.1227H45.3271ZM69.0391 91.6107C75.0551 91.6107 79.5991 90.5867 82.6711 88.5387C85.7431 86.4907 87.2791 83.2907 87.2791 78.9387C87.2791 70.5547 81.1991 66.3627 69.0391 66.3627H45.3271V91.6107H69.0391Z" fill="black"/>
</svg>
